<svg xmlns="http://www.w3.org/2000/svg" viewBox="0 0 1440 900" font-family="system-ui, -apple-system, sans-serif">
  <rect width="1440" height="900" fill="#f7fafc"/>
  <!-- Top Nav -->
  <rect width="1440" height="56" fill="white"/>
  <line x1="0" y1="56" x2="1440" y2="56" stroke="#e2e8f0" stroke-width="1"/>
  <text x="24" y="36" fill="#2c5282" font-size="18" font-weight="700">CMMS</text>
  <text x="90" y="36" fill="#718096" font-size="14">|</text>
  <text x="104" y="36" fill="#1a202c" font-size="15" font-weight="600">Work Orders</text>
  <text x="300" y="36" fill="#718096" font-size="14">Dashboard</text>
  <text x="420" y="36" fill="#718096" font-size="14">Assets</text>
  <text x="520" y="36" fill="#718096" font-size="14">Inspections</text>
  <text x="640" y="36" fill="#718096" font-size="14">Dispatch</text>
  <text x="740" y="36" fill="#718096" font-size="14">Tickets</text>
  <text x="830" y="36" fill="#718096" font-size="14">Admin</text>
  <circle cx="1380" cy="28" r="16" fill="#ebf8ff"/>
  <text x="1380" y="33" text-anchor="middle" fill="#2c5282" font-size="13" font-weight="600">TM</text>

  <!-- Toolbar -->
  <rect x="24" y="72" width="1392" height="48" fill="white" rx="8" filter="drop-shadow(0 1px 2px rgba(0,0,0,0.04))"/>
  <rect x="24" y="72" width="150" height="48" fill="#2c5282" rx="8"/>
  <text x="99" y="101" text-anchor="middle" fill="white" font-size="13" font-weight="600">+ Create Work Order</text>
  <rect x="190" y="82" width="240" height="28" fill="#edf2f7" rx="6"/>
  <text x="210" y="101" fill="#a0aec0" font-size="12">Search work orders...</text>
  <rect x="450" y="82" width="100" height="28" fill="#edf2f7" rx="6"/>
  <text x="500" y="101" text-anchor="middle" fill="#4a5568" font-size="12">Status ▾</text>
  <rect x="562" y="82" width="100" height="28" fill="#edf2f7" rx="6"/>
  <text x="612" y="101" text-anchor="middle" fill="#4a5568" font-size="12">Priority ▾</text>
  <text x="1392" y="101" text-anchor="end" fill="#718096" font-size="12">6 work orders</text>

  <!-- Table -->
  <rect x="24" y="136" width="1392" height="36" fill="#edf2f7" rx="4"/>
  <text x="40" y="159" fill="#718096" font-size="11" font-weight="700">WO #</text>
  <text x="130" y="159" fill="#718096" font-size="11" font-weight="700">TITLE</text>
  <text x="380" y="159" fill="#718096" font-size="11" font-weight="700">PARENT TICKET</text>
  <text x="530" y="159" fill="#718096" font-size="11" font-weight="700">ASSET</text>
  <text x="700" y="159" fill="#718096" font-size="11" font-weight="700">STATUS</text>
  <text x="810" y="159" fill="#718096" font-size="11" font-weight="700">ASSIGNEE</text>
  <text x="940" y="159" fill="#718096" font-size="11" font-weight="700">DUE DATE</text>
  <text x="1060" y="159" fill="#718096" font-size="11" font-weight="700">TASKS</text>
  <text x="1160" y="159" fill="#718096" font-size="11" font-weight="700">EST. HOURS</text>

  <!-- Row 1 -->
  <rect x="24" y="176" width="1392" height="52" fill="white"/>
  <line x1="24" y1="228" x2="1416" y2="228" stroke="#f0f0f0" stroke-width="1"/>
  <rect x="24" y="176" width="3" height="52" fill="#e53e3e"/>
  <text x="40" y="207" fill="#2c5282" font-size="12" font-weight="600">WO-0042</text>
  <text x="130" y="207" fill="#1a202c" font-size="12">Blade Crack Repair — Trailing Edge</text>
  <text x="380" y="207" fill="#2c5282" font-size="12">TKT-2025-0042 →</text>
  <text x="530" y="207" fill="#1a202c" font-size="12">WTG-HR-01 · Blade</text>
  <rect x="700" y="192" width="90" height="20" fill="#bee3f8" rx="4"/>
  <text x="745" y="206" text-anchor="middle" fill="#2a4365" font-size="10" font-weight="600">PLANNED</text>
  <text x="810" y="207" fill="#1a202c" font-size="12">Alex Petrov</text>
  <text x="940" y="207" fill="#e53e3e" font-size="12" font-weight="600">May 9, 2025</text>
  <text x="1060" y="207" fill="#1a202c" font-size="12">0/4</text>
  <text x="1160" y="207" fill="#1a202c" font-size="12">16h</text>

  <!-- Row 2 -->
  <rect x="24" y="228" width="1392" height="52" fill="#f7fafc"/>
  <line x1="24" y1="280" x2="1416" y2="280" stroke="#f0f0f0" stroke-width="1"/>
  <rect x="24" y="228" width="3" height="52" fill="#ecc94b"/>
  <text x="40" y="259" fill="#2c5282" font-size="12" font-weight="600">WO-0043</text>
  <text x="130" y="259" fill="#1a202c" font-size="12">Gearbox Oil Seal Replacement</text>
  <text x="380" y="259" fill="#2c5282" font-size="12">TKT-2025-0043 →</text>
  <text x="530" y="259" fill="#1a202c" font-size="12">WTG-HR-22 · Drivetrain</text>
  <rect x="700" y="244" width="95" height="20" fill="#bee3f8" rx="4"/>
  <text x="747" y="258" text-anchor="middle" fill="#2a4365" font-size="10" font-weight="600">IN PROGRESS</text>
  <text x="810" y="259" fill="#1a202c" font-size="12">Maria Kowalski</text>
  <text x="940" y="259" fill="#38a169" font-size="12">May 11, 2025</text>
  <text x="1060" y="259" fill="#1a202c" font-size="12">2/5</text>
  <text x="1160" y="259" fill="#1a202c" font-size="12">24h</text>

  <!-- Row 3 -->
  <rect x="24" y="280" width="1392" height="52" fill="white"/>
  <line x1="24" y1="332" x2="1416" y2="332" stroke="#f0f0f0" stroke-width="1"/>
  <rect x="24" y="280" width="3" height="52" fill="#3182ce"/>
  <text x="40" y="311" fill="#2c5282" font-size="12" font-weight="600">WO-0044</text>
  <text x="130" y="311" fill="#1a202c" font-size="12">Yaw Bearing Inspection &amp; Lubrication</text>
  <text x="380" y="311" fill="#2c5282" font-size="12">TKT-2025-0044 →</text>
  <text x="530" y="311" fill="#1a202c" font-size="12">WTG-HR-15 · Nacelle</text>
  <rect x="700" y="296" width="60" height="20" fill="#edf2f7" rx="4"/>
  <text x="730" y="310" text-anchor="middle" fill="#4a5568" font-size="10" font-weight="600">DRAFT</text>
  <text x="810" y="311" fill="#a0aec0" font-size="12">Unassigned</text>
  <text x="940" y="311" fill="#718096" font-size="12">May 14, 2025</text>
  <text x="1060" y="311" fill="#1a202c" font-size="12">0/3</text>
  <text x="1160" y="311" fill="#1a202c" font-size="12">8h</text>

  <!-- WO Detail Panel (below table) -->
  <rect x="24" y="352" width="1392" height="520" fill="white" rx="10" filter="drop-shadow(0 1px 3px rgba(0,0,0,0.06))"/>
  <text x="40" y="382" fill="#1a202c" font-size="17" font-weight="700">WO-0042: Blade Crack Repair — Trailing Edge</text>
  <rect x="580" y="366" width="90" height="22" fill="#bee3f8" rx="4"/>
  <text x="625" y="382" text-anchor="middle" fill="#2a4365" font-size="10" font-weight="600">PLANNED</text>

  <!-- Tabs -->
  <line x1="40" y1="396" x2="1396" y2="396" stroke="#e2e8f0" stroke-width="1"/>
  <text x="40" y="418" fill="#2c5282" font-size="12" font-weight="600">Overview</text>
  <line x1="40" y1="424" x2="96" y2="424" stroke="#2c5282" stroke-width="2"/>
  <text x="120" y="418" fill="#718096" font-size="12">Tasks (4)</text>
  <text x="200" y="418" fill="#718096" font-size="12">Parts</text>
  <text x="260" y="418" fill="#718096" font-size="12">Safety</text>
  <text x="320" y="418" fill="#718096" font-size="12">Evidence</text>
  <text x="400" y="418" fill="#718096" font-size="12">Notes</text>

  <!-- Details -->
  <text x="40" y="452" fill="#718096" font-size="11">Parent Ticket</text>
  <text x="160" y="452" fill="#2c5282" font-size="12" font-weight="500">TKT-2025-0042 →</text>
  <text x="400" y="452" fill="#718096" font-size="11">Asset</text>
  <text x="520" y="452" fill="#1a202c" font-size="12">WTG-HR-01 · Trailing Edge</text>
  <text x="800" y="452" fill="#718096" font-size="11">Priority</text>
  <rect x="880" y="438" width="60" height="20" fill="#fed7d7" rx="4"/>
  <text x="910" y="452" text-anchor="middle" fill="#9b2c2c" font-size="10" font-weight="600">CRITICAL</text>

  <text x="40" y="476" fill="#718096" font-size="11">Assignee</text>
  <text x="160" y="476" fill="#1a202c" font-size="12">Alex Petrov</text>
  <text x="400" y="476" fill="#718096" font-size="11">Due Date</text>
  <text x="520" y="476" fill="#e53e3e" font-size="12" font-weight="600">May 9, 2025 14:00</text>
  <text x="800" y="476" fill="#718096" font-size="11">Est. Hours</text>
  <text x="880" y="476" fill="#1a202c" font-size="12">16 hours</text>

  <!-- Task checklist -->
  <text x="40" y="516" fill="#1a202c" font-size="14" font-weight="700">Tasks (0/4)</text>
  <rect x="40" y="530" width="1340" height="36" fill="#f7fafc" rx="6"/>
  <rect x="52" y="540" width="18" height="18" fill="white" rx="3" stroke="#cbd5e0" stroke-width="1"/>
  <text x="82" y="554" fill="#1a202c" font-size="12">1. Access turbine via rope — setup safety lines</text>
  <text x="700" y="554" fill="#718096" font-size="11">Est: 2h · Required: Rope access cert</text>

  <rect x="40" y="572" width="1340" height="36" fill="white" rx="6"/>
  <rect x="52" y="582" width="18" height="18" fill="white" rx="3" stroke="#cbd5e0" stroke-width="1"/>
  <text x="82" y="596" fill="#1a202c" font-size="12">2. Clean crack area and measure extent</text>
  <text x="700" y="596" fill="#718096" font-size="11">Est: 2h · Required: NDT Level 2</text>

  <rect x="40" y="614" width="1340" height="36" fill="#f7fafc" rx="6"/>
  <rect x="52" y="624" width="18" height="18" fill="white" rx="3" stroke="#cbd5e0" stroke-width="1"/>
  <text x="82" y="638" fill="#1a202c" font-size="12">3. Apply composite repair patch</text>
  <text x="700" y="638" fill="#718096" font-size="11">Est: 8h · Required: Composite repair training</text>

  <rect x="40" y="656" width="1340" height="36" fill="white" rx="6"/>
  <rect x="52" y="666" width="18" height="18" fill="white" rx="3" stroke="#cbd5e0" stroke-width="1"/>
  <text x="82" y="680" fill="#1a202c" font-size="12">4. Post-repair inspection and documentation</text>
  <text x="700" y="680" fill="#718096" font-size="11">Est: 4h · Required: Blade inspection cert</text>

  <!-- Safety requirements -->
  <rect x="40" y="710" width="1340" height="44" fill="#fff5f5" rx="6"/>
  <text x="56" y="734" fill="#e53e3e" font-size="12" font-weight="600">⚠ Safety: Rope access · LOTO · Fall protection · PPE required. Emergency plan WTG-HR-01 Rev.3 applies.</text>

  <!-- Bottom actions -->
  <rect x="40" y="770" width="130" height="36" fill="#2c5282" rx="6"/>
  <text x="105" y="793" text-anchor="middle" fill="white" font-size="13" font-weight="600">Start Work</text>
  <rect x="182" y="770" width="130" height="36" fill="white" rx="6" stroke="#cbd5e0" stroke-width="1"/>
  <text x="247" y="793" text-anchor="middle" fill="#4a5568" font-size="13" font-weight="600">Edit WO</text>
  <rect x="324" y="770" width="130" height="36" fill="white" rx="6" stroke="#cbd5e0" stroke-width="1"/>
  <text x="389" y="793" text-anchor="middle" fill="#4a5568" font-size="13" font-weight="600">Add Note</text>
</svg>
